# xmcd CD database file
#
# Track frame offsets:
#	150
#	11382
#	22087
#	33467
#	44905
#	57452
#	69480
#	80640
#	91837
#	103717
#	113972
#	126255
#
# Disc length: 1913 seconds
#
# Revision: 2
# Processed by: cddbd v1.4b41PL1 Copyright (c) Steve Scherf et al.
# Submitted via: Feurio! 1.52 - http://www.feurio.com
#
DISCID=a607770c
DTITLE=Brook Benton - The Millennium Collection
DYEAR=1900
DGENRE=
TTITLE0=It´s Just A Matter Of Time
TTITLE1=Endlessly
TTITLE2=Thank You Pretty Baby
TTITLE3=So Many Ways
TTITLE4=Baby (You´ve Got What It Takes)
TTITLE5=Kiddio
TTITLE6=A Rockin´ Good Way
TTITLE7=Fools Rush In
TTITLE8=The Boll Weevil Song
TTITLE9=Lie To Me
TTITLE10=Hotel Happiness
TTITLE11=Rainy Night In Georgia
EXTD=
EXTT0=
EXTT1=
EXTT2=
EXTT3=
EXTT4=
EXTT5=
EXTT6=
EXTT7=
EXTT8=
EXTT9=
EXTT10=
EXTT11=
PLAYORDER=
